# xmcd CD database file
#
# Track frame offsets:
#	150
#	13915
#	31970
#	45010
#	59487
#	73470
#	89679
#	109217
#	124737
#	136402
#	152505
#	165152
#
# Disc length: 2367 seconds
#
# Revision: 1
# Processed by: cddbd v1.5.2PL0 Copyright (c) Steve Scherf et al.
# Submitted via: CDex 1.51
#
DISCID=9e093d0c
DTITLE=Ollie Nightingale - Sweet Surrender
DYEAR=2005
DGENRE=Soul
TTITLE0=Here I Am Again
TTITLE1=I Gave Her Everything But What She Needed
TTITLE2=It's A Sad Thing
TTITLE3=Standing On A Promise
TTITLE4=A Good Woman At Home (Is Better Than Two In The Street)
TTITLE5=How Far Am I From New York City
TTITLE6=May The Best Man Win
TTITLE7=I'm In Love
TTITLE8=I Don't Know Why I Love You
TTITLE9=I'll Take Care Of You
TTITLE10=Begging
TTITLE11=Sweet Surrender
EXTD=YEAR: 2005
EXTT0=
EXTT1=
EXTT2=
EXTT3=
EXTT4=
EXTT5=
EXTT6=
EXTT7=
EXTT8=
EXTT9=
EXTT10=
EXTT11=
PLAYORDER=
